<?xml version="1.0" standalone="no"?>
<!DOCTYPE svg PUBLIC "-//W3C//DTD SVG 20010904//EN"
 "http://www.w3.org/TR/2001/REC-SVG-20010904/DTD/svg10.dtd">
<svg version="1.0" xmlns="http://www.w3.org/2000/svg"
 width="128.000000pt" height="128.000000pt" viewBox="0 0 128.000000 128.000000"
 preserveAspectRatio="xMidYMid meet">
<metadata>
Created by potrace 1.14, written by Peter Selinger 2001-2017
</metadata>
<g transform="translate(0.000000,128.000000) scale(0.100000,-0.100000)"
fill="#000000" stroke="none">
<path d="M383 1178 c-1 -57 -2 -105 -2 -108 -1 -3 -76 -5 -168 -5 l-168 0 -2
-450 c-1 -247 -2 -458 -3 -467 0 -11 -8 -18 -20 -18 -18 0 -20 -7 -20 -65 l0
-65 560 0 c483 0 566 2 598 15 146 62 163 254 29 338 -118 75 -274 -3 -288
-143 l-4 -35 63 0 c34 0 62 3 62 8 0 4 6 20 14 36 20 37 58 45 91 19 30 -24
32 -61 5 -88 -18 -18 -33 -20 -148 -20 l-128 0 0 573 0 572 -235 3 -235 2 -1
-102z m427 -495 c0 -546 0 -553 -20 -553 -19 0 -20 7 -20 105 l0 105 -150 0
-150 0 0 -105 c0 -102 -1 -105 -22 -105 l-23 0 2 528 c1 290 2 539 2 553 l1
27 190 -1 190 0 0 -554z m-438 334 c10 -3 13 -99 12 -443 l0 -439 -149 0 -150
0 0 440 c0 416 1 440 18 445 22 6 252 4 269 -3z m788 -698 c100 -57 99 -201
-3 -257 -29 -15 -80 -17 -557 -19 -289 -1 -532 1 -541 3 -15 4 -23 33 -10 35
3 1 242 2 531 3 461 2 529 4 555 18 87 46 70 173 -26 192 -42 8 -94 -16 -113
-52 -10 -19 -22 -29 -33 -28 -38 6 4 82 59 109 45 23 93 21 138 -4z m-564
-104 l1 -85 -44 0 -43 0 0 85 0 85 43 0 43 0 0 -85z m129 -2 l1 -83 -43 0 -43
0 0 86 0 85 43 -3 42 -3 0 -82z"/>
<path d="M470 1174 c0 -18 5 -24 21 -24 15 0 20 5 17 22 -4 31 -38 33 -38 2z"/>
<path d="M560 1190 c-18 -11 -4 -40 20 -40 13 0 20 7 20 19 0 22 -21 33 -40
21z"/>
<path d="M646 1193 c-14 -14 -5 -43 13 -43 24 0 31 10 22 30 -7 16 -25 23 -35
13z"/>
<path d="M728 1188 c-8 -21 2 -38 23 -38 23 0 26 35 3 44 -21 8 -21 8 -26 -6z"/>
<path d="M470 1091 c0 -19 23 -35 34 -24 14 15 5 43 -14 43 -13 0 -20 -7 -20
-19z"/>
<path d="M559 1105 c-8 -31 4 -47 28 -38 21 8 16 43 -7 43 -11 0 -21 -2 -21
-5z"/>
<path d="M640 1092 c0 -25 7 -31 29 -25 13 3 17 11 14 24 -7 25 -43 25 -43 1z"/>
<path d="M723 1091 c-1 -11 6 -21 17 -24 23 -6 30 0 30 25 0 26 -45 25 -47 -1z"/>
<path d="M483 1023 c-21 -8 -15 -43 7 -43 15 0 20 7 20 25 0 25 -4 28 -27 18z"/>
<path d="M557 1022 c-9 -19 0 -37 20 -40 17 -2 21 2 20 17 -1 19 -33 37 -40
23z"/>
<path d="M640 1004 c0 -18 5 -24 21 -24 15 0 20 5 17 22 -4 31 -38 33 -38 2z"/>
<path d="M727 1023 c-9 -20 0 -38 21 -41 16 -3 22 2 22 16 0 11 -7 23 -16 26
-20 8 -22 8 -27 -1z"/>
<path d="M470 921 c0 -36 30 -35 43 2 5 13 1 17 -18 17 -18 0 -25 -5 -25 -19z"/>
<path d="M559 938 c-7 -25 -4 -37 11 -41 23 -6 30 0 30 25 0 11 -7 18 -20 18
-11 0 -20 -1 -21 -2z"/>
<path d="M640 916 c0 -17 5 -23 18 -22 36 2 37 46 1 46 -13 0 -19 -7 -19 -24z"/>
<path d="M729 938 c-7 -25 -4 -37 11 -41 23 -6 30 0 30 25 0 11 -7 18 -20 18
-11 0 -20 -1 -21 -2z"/>
<path d="M483 853 c-21 -8 -15 -43 7 -43 15 0 20 7 20 25 0 25 -4 28 -27 18z"/>
<path d="M560 850 c-18 -11 -4 -40 20 -40 13 0 20 7 20 19 0 22 -21 33 -40 21z"/>
<path d="M653 853 c-21 -8 -15 -43 6 -43 11 0 22 4 25 9 8 12 -17 39 -31 34z"/>
<path d="M727 841 c-6 -24 0 -31 25 -31 23 0 25 35 2 44 -21 8 -21 8 -27 -13z"/>
<path d="M470 751 c0 -26 27 -34 39 -12 12 21 5 31 -21 31 -11 0 -18 -7 -18
-19z"/>
<path d="M558 763 c-10 -19 -1 -38 17 -38 13 0 20 7 20 20 0 19 -29 34 -37 18z"/>
<path d="M640 746 c0 -18 5 -23 18 -21 9 2 20 4 24 4 3 1 4 10 1 21 -8 30 -43
26 -43 -4z"/>
<path d="M729 768 c-7 -25 -4 -37 11 -41 23 -6 30 0 30 25 0 11 -7 18 -20 18
-11 0 -20 -1 -21 -2z"/>
<path d="M476 683 c-14 -15 -5 -43 14 -43 13 0 20 7 20 19 0 19 -23 35 -34 24z"/>
<path d="M559 687 c-1 -1 -3 -12 -4 -24 -2 -18 3 -23 21 -23 30 0 33 35 4 43
-11 3 -21 4 -21 4z"/>
<path d="M640 665 c0 -18 5 -25 20 -25 11 0 20 5 20 10 0 6 0 13 1 17 0 4 -9
10 -20 15 -18 6 -21 3 -21 -17z"/>
<path d="M734 682 c-18 -13 -9 -37 14 -40 16 -3 22 2 22 16 0 21 -21 34 -36
24z"/>
<path d="M470 576 c0 -19 5 -24 20 -23 14 1 20 8 20 24 0 16 -6 23 -20 23 -15
0 -20 -7 -20 -24z"/>
<path d="M556 591 c-10 -16 4 -39 22 -37 22 4 22 40 0 44 -9 2 -19 -1 -22 -7z"/>
<path d="M642 578 c3 -21 38 -35 38 -15 0 4 0 14 0 22 0 9 -9 15 -21 15 -15 0
-20 -5 -17 -22z"/>
<path d="M726 583 c-8 -19 10 -34 31 -26 7 3 13 14 13 24 0 24 -35 26 -44 2z"/>
<path d="M470 490 c0 -13 7 -20 20 -20 13 0 20 7 20 20 0 13 -7 20 -20 20 -13
0 -20 -7 -20 -20z"/>
<path d="M553 490 c-1 -15 4 -20 23 -20 17 0 24 5 24 20 0 14 -7 20 -23 20
-16 0 -23 -6 -24 -20z"/>
<path d="M640 490 c0 -13 7 -20 20 -20 13 0 20 7 20 20 0 13 -7 20 -20 20 -13
0 -20 -7 -20 -20z"/>
<path d="M724 493 c2 -10 13 -19 24 -21 17 -3 22 2 22 17 0 16 -6 21 -24 21
-17 0 -24 -5 -22 -17z"/>
<path d="M470 404 c0 -33 33 -30 38 4 3 17 -2 22 -17 22 -16 0 -21 -6 -21 -26z"/>
<path d="M553 411 c-2 -22 25 -37 40 -22 14 14 1 41 -21 41 -10 0 -18 -8 -19
-19z"/>
<path d="M640 402 c0 -31 34 -26 38 5 3 17 -2 21 -17 20 -15 -1 -21 -8 -21
-25z"/>
<path d="M726 414 c-8 -21 0 -33 22 -30 25 4 29 46 4 46 -11 0 -23 -7 -26 -16z"/>
<path d="M130 960 c0 -13 7 -20 20 -20 13 0 20 7 20 20 0 13 -7 20 -20 20 -13
0 -20 -7 -20 -20z"/>
<path d="M210 960 c0 -15 7 -20 25 -20 18 0 25 5 25 20 0 15 -7 20 -25 20 -18
0 -25 -5 -25 -20z"/>
<path d="M300 960 c0 -13 7 -20 20 -20 13 0 20 7 20 20 0 13 -7 20 -20 20 -13
0 -20 -7 -20 -20z"/>
<path d="M130 874 c0 -17 5 -24 20 -24 14 0 20 7 20 23 0 16 -6 23 -20 24 -15
1 -20 -4 -20 -23z"/>
<path d="M213 883 c-7 -18 6 -35 25 -31 24 5 23 47 -1 45 -11 -1 -21 -7 -24
-14z"/>
<path d="M300 875 c0 -18 5 -25 20 -25 15 0 20 7 20 25 0 18 -5 25 -20 25 -15
0 -20 -7 -20 -25z"/>
<path d="M130 790 c0 -13 7 -20 20 -20 13 0 20 7 20 20 0 13 -7 20 -20 20 -13
0 -20 -7 -20 -20z"/>
<path d="M210 790 c0 -15 7 -20 24 -20 19 0 24 5 23 20 -1 14 -8 20 -24 20
-16 0 -23 -6 -23 -20z"/>
<path d="M300 790 c0 -13 7 -20 20 -20 13 0 20 7 20 20 0 13 -7 20 -20 20 -13
0 -20 -7 -20 -20z"/>
<path d="M130 703 c0 -16 6 -23 20 -23 15 0 20 7 20 24 0 19 -5 24 -20 23 -14
-1 -20 -8 -20 -24z"/>
<path d="M221 721 c-17 -11 -7 -41 13 -41 19 0 28 14 20 34 -7 18 -13 19 -33
7z"/>
<path d="M305 722 c-14 -14 -3 -42 15 -42 14 0 20 7 20 23 0 21 -21 33 -35 19z"/>
<path d="M130 621 c0 -19 23 -35 34 -24 14 15 5 43 -14 43 -13 0 -20 -7 -20
-19z"/>
<path d="M212 623 c5 -26 43 -29 45 -3 1 15 -4 20 -23 20 -19 0 -25 -5 -22
-17z"/>
<path d="M300 620 c0 -13 7 -20 20 -20 13 0 20 7 20 20 0 13 -7 20 -20 20 -13
0 -20 -7 -20 -20z"/>
<path d="M131 541 c-12 -21 -5 -31 21 -31 11 0 18 7 18 19 0 26 -27 34 -39 12z"/>
<path d="M223 553 c-21 -8 -16 -43 6 -43 24 0 33 13 25 34 -6 17 -11 18 -31 9z"/>
<path d="M300 534 c0 -18 5 -24 21 -24 15 0 20 5 17 22 -4 31 -38 33 -38 2z"/>
<path d="M130 445 c0 -27 1 -28 24 -19 24 9 20 44 -4 44 -15 0 -20 -7 -20 -25z"/>
<path d="M213 450 c-1 -15 4 -20 22 -20 18 0 23 5 22 20 -1 13 -8 20 -22 20
-14 0 -21 -7 -22 -20z"/>
<path d="M300 451 c0 -19 23 -35 34 -24 14 15 5 43 -14 43 -13 0 -20 -7 -20
-19z"/>
<path d="M144 382 c-6 -4 -13 -15 -17 -24 -5 -14 -1 -18 18 -18 18 0 25 5 25
19 0 23 -11 33 -26 23z"/>
<path d="M219 387 c-1 -1 -3 -12 -4 -25 -2 -18 2 -22 19 -20 28 4 33 34 6 41
-11 3 -21 4 -21 4z"/>
<path d="M300 364 c0 -18 5 -24 21 -24 15 0 20 5 17 22 -4 31 -38 33 -38 2z"/>
<path d="M130 275 c0 -27 1 -28 24 -19 24 9 20 44 -4 44 -15 0 -20 -7 -20 -25z"/>
<path d="M212 279 c2 -15 10 -23 25 -24 31 -2 25 39 -6 43 -18 3 -22 -1 -19
-19z"/>
<path d="M302 278 c4 -31 38 -33 38 -2 0 18 -5 24 -21 24 -15 0 -20 -5 -17
-22z"/>
<path d="M136 213 c-14 -15 -5 -43 14 -43 13 0 20 7 20 19 0 19 -23 35 -34 24z"/>
<path d="M223 212 c-20 -13 -11 -42 13 -42 16 0 22 5 21 20 -1 21 -18 32 -34
22z"/>
<path d="M318 213 c-25 -6 -23 -43 2 -43 15 0 20 7 20 25 0 14 -1 24 -2 24 -2
-1 -11 -3 -20 -6z"/>
</g>
</svg>
